# xmcd
#
# Track frame offsets: 
#        150
#        14592
#        29439
#        47430
#        59547
#        73473
#        92035
#        103154
#        117927
#        130018
#        147657
#        162112
#        177920
#
# Disc length: 2502 seconds
#
# Revision: 0
# Processed by: cddbd v1.5.1PL2 Copyright (c) Steve Scherf et al.
# Submitted via: ExactAudioCopy v0.95b4
#
DISCID=be09c40d
DTITLE=C-train - Tracks and Trucks
DYEAR=2000
DGENRE=Country
TTITLE0=It's All Right
TTITLE1=Walk On
TTITLE2=Little White House
TTITLE3=Boom Boom
TTITLE4=Night Train To Dallas
TTITLE5=I Thank The Lord Again
TTITLE6=Invisible Man
TTITLE7=Closer To Heaven
TTITLE8=When The Dreams Are Over And Done
TTITLE9=Let Go
TTITLE10=Such A Long Time Ago
TTITLE11=Linda Lee
TTITLE12=There's A Reason
EXTD=
EXTT0=
EXTT1=
EXTT2=
EXTT3=
EXTT4=
EXTT5=
EXTT6=
EXTT7=
EXTT8=
EXTT9=
EXTT10=
EXTT11=
EXTT12=
PLAYORDER=
